<svg width="16" height="16" viewBox="0 0 16 16" fill="none" xmlns="http://www.w3.org/2000/svg">
<g clip-path="url(#clip0_502_450)">
<path d="M4.86067 13.8827L1.33333 14.6667L2.11733 11.1394C1.60102 10.1736 1.33168 9.09514 1.33333 8.00004C1.33333 4.31804 4.318 1.33337 8 1.33337C11.682 1.33337 14.6667 4.31804 14.6667 8.00004C14.6667 11.682 11.682 14.6667 8 14.6667C6.9049 14.6684 5.82641 14.399 4.86067 13.8827ZM5.054 12.474L5.48933 12.7074C6.2617 13.1201 7.12426 13.3352 8 13.3334C9.05483 13.3334 10.086 13.0206 10.963 12.4345C11.8401 11.8485 12.5237 11.0156 12.9274 10.041C13.331 9.06648 13.4366 7.99412 13.2309 6.95956C13.0251 5.92499 12.5171 4.97468 11.7712 4.2288C11.0254 3.48292 10.075 2.97497 9.04048 2.76919C8.00592 2.5634 6.93356 2.66902 5.95902 3.07268C4.98448 3.47635 4.15153 4.15994 3.56549 5.037C2.97946 5.91406 2.66667 6.94521 2.66667 8.00004C2.66667 8.88937 2.88333 9.74537 3.29333 10.5107L3.526 10.946L3.08933 12.9107L5.054 12.474Z" fill="#878787"/>
</g>
<defs>
<clipPath id="clip0_502_450">
<rect width="16" height="16" fill="white"/>
</clipPath>
</defs>
</svg>
