<svg width="32" height="33" viewBox="0 0 32 33" fill="none" xmlns="http://www.w3.org/2000/svg">
<g clip-path="url(#clip0_502_507)">
<path d="M16 3.08276C19.6227 3.08276 20.0747 3.0961 21.496 3.16276C22.916 3.22943 23.8827 3.4521 24.7333 3.78276C25.6133 4.12143 26.3547 4.5801 27.096 5.3201C27.774 5.98662 28.2986 6.79288 28.6333 7.68276C28.9627 8.5321 29.1867 9.5001 29.2533 10.9201C29.316 12.3414 29.3333 12.7934 29.3333 16.4161C29.3333 20.0388 29.32 20.4908 29.2533 21.9121C29.1867 23.3321 28.9627 24.2988 28.6333 25.1494C28.2996 26.0398 27.7748 26.8463 27.096 27.5121C26.4293 28.1899 25.6231 28.7144 24.7333 29.0494C23.884 29.3788 22.916 29.6028 21.496 29.6694C20.0747 29.7321 19.6227 29.7494 16 29.7494C12.3773 29.7494 11.9253 29.7361 10.504 29.6694C9.08399 29.6028 8.11732 29.3788 7.26666 29.0494C6.37642 28.7154 5.57003 28.1907 4.90399 27.5121C4.22587 26.8457 3.70123 26.0394 3.36666 25.1494C3.03599 24.3001 2.81332 23.3321 2.74666 21.9121C2.68399 20.4908 2.66666 20.0388 2.66666 16.4161C2.66666 12.7934 2.67999 12.3414 2.74666 10.9201C2.81332 9.49876 3.03599 8.53343 3.36666 7.68276C3.7003 6.79234 4.22506 5.98586 4.90399 5.3201C5.57022 4.64174 6.37656 4.11707 7.26666 3.78276C8.11732 3.4521 9.08266 3.22943 10.504 3.16276C11.9253 3.1001 12.3773 3.08276 16 3.08276ZM16 9.74943C14.2319 9.74943 12.5362 10.4518 11.2859 11.7021C10.0357 12.9523 9.33332 14.648 9.33332 16.4161C9.33332 18.1842 10.0357 19.8799 11.2859 21.1301C12.5362 22.3804 14.2319 23.0828 16 23.0828C17.7681 23.0828 19.4638 22.3804 20.714 21.1301C21.9643 19.8799 22.6667 18.1842 22.6667 16.4161C22.6667 14.648 21.9643 12.9523 20.714 11.7021C19.4638 10.4518 17.7681 9.74943 16 9.74943ZM24.6667 9.4161C24.6667 8.97407 24.4911 8.55015 24.1785 8.23759C23.8659 7.92502 23.442 7.74943 23 7.74943C22.558 7.74943 22.134 7.92502 21.8215 8.23759C21.5089 8.55015 21.3333 8.97407 21.3333 9.4161C21.3333 9.85812 21.5089 10.282 21.8215 10.5946C22.134 10.9072 22.558 11.0828 23 11.0828C23.442 11.0828 23.8659 10.9072 24.1785 10.5946C24.4911 10.282 24.6667 9.85812 24.6667 9.4161ZM16 12.4161C17.0609 12.4161 18.0783 12.8375 18.8284 13.5877C19.5786 14.3378 20 15.3552 20 16.4161C20 17.477 19.5786 18.4944 18.8284 19.2445C18.0783 19.9947 17.0609 20.4161 16 20.4161C14.9391 20.4161 13.9217 19.9947 13.1716 19.2445C12.4214 18.4944 12 17.477 12 16.4161C12 15.3552 12.4214 14.3378 13.1716 13.5877C13.9217 12.8375 14.9391 12.4161 16 12.4161Z" fill="#5243C2"/>
</g>
<defs>
<clipPath id="clip0_502_507">
<rect width="32" height="32" fill="white" transform="translate(0 0.416016)"/>
</clipPath>
</defs>
</svg>
