<svg width="16" height="16" viewBox="0 0 16 16" fill="none" xmlns="http://www.w3.org/2000/svg">
<path d="M2.66667 14.6666C2.66667 13.2521 3.22857 11.8956 4.22877 10.8954C5.22896 9.8952 6.58552 9.33329 8 9.33329C9.41449 9.33329 10.771 9.8952 11.7712 10.8954C12.7714 11.8956 13.3333 13.2521 13.3333 14.6666H12C12 13.6058 11.5786 12.5883 10.8284 11.8382C10.0783 11.0881 9.06087 10.6666 8 10.6666C6.93914 10.6666 5.92172 11.0881 5.17158 11.8382C4.42143 12.5883 4.00001 13.6058 4.00001 14.6666H2.66667ZM8 8.66663C5.79 8.66663 4.00001 6.87663 4.00001 4.66663C4.00001 2.45663 5.79 0.666626 8 0.666626C10.21 0.666626 12 2.45663 12 4.66663C12 6.87663 10.21 8.66663 8 8.66663ZM8 7.33329C9.47334 7.33329 10.6667 6.13996 10.6667 4.66663C10.6667 3.19329 9.47334 1.99996 8 1.99996C6.52667 1.99996 5.33334 3.19329 5.33334 4.66663C5.33334 6.13996 6.52667 7.33329 8 7.33329Z" fill="#878787"/>
</svg>
